<svg width="20" height="20" viewBox="0 0 20 20" fill="none" xmlns="http://www.w3.org/2000/svg">
<path d="M1.76419 9.55893C1.76419 8.60721 1.95642 7.78155 2.34089 7.08195C2.73166 6.37604 3.2737 5.79304 3.967 5.33294C4.6603 4.86653 5.48281 4.51988 6.43452 4.29298C7.38624 4.06609 8.42619 3.95264 9.55438 3.95264C10.6826 3.95264 11.7225 4.06609 12.6742 4.29298C13.626 4.51988 14.4485 4.86653 15.1418 5.33294C15.8351 5.79304 16.3739 6.37604 16.7584 7.08195C17.1492 7.78155 17.3446 8.60721 17.3446 9.55893C17.3446 10.5485 17.1492 11.3962 16.7584 12.1021C16.3739 12.808 15.8351 13.3878 15.1418 13.8416C14.4485 14.2954 13.626 14.6263 12.6742 14.8343C11.7225 15.0486 10.6826 15.1558 9.55438 15.1558C8.42619 15.1558 7.38624 15.0486 6.43452 14.8343C5.48281 14.6263 4.6603 14.2954 3.967 13.8416C3.2737 13.3878 2.73166 12.808 2.34089 12.1021C1.95642 11.3962 1.76419 10.5485 1.76419 9.55893ZM6.73705 9.55893C6.73705 10.1388 6.80954 10.6651 6.9545 11.1378C7.10576 11.6105 7.30745 12.0138 7.55956 12.3479C7.81797 12.6756 8.11735 12.9309 8.4577 13.1137C8.80435 13.2902 9.16991 13.3784 9.55438 13.3784C9.93885 13.3784 10.3013 13.2902 10.6416 13.1137C10.9883 12.9309 11.2876 12.6756 11.5397 12.3479C11.7982 12.0138 11.9998 11.6105 12.1448 11.1378C12.2961 10.6651 12.3717 10.1388 12.3717 9.55893C12.3717 8.97277 12.2961 8.44019 12.1448 7.96118C11.9998 7.48217 11.7982 7.07249 11.5397 6.73215C11.2876 6.3918 10.9883 6.12708 10.6416 5.938C10.3013 5.74892 9.93885 5.65438 9.55438 5.65438C9.16991 5.65438 8.80435 5.74892 8.4577 5.938C8.11735 6.12708 7.81797 6.3918 7.55956 6.73215C7.30745 7.07249 7.10576 7.48217 6.9545 7.96118C6.80954 8.44019 6.73705 8.97277 6.73705 9.55893Z" fill="black"/>
</svg>
