<svg width="159" height="31" viewBox="0 0 159 31" fill="none" xmlns="http://www.w3.org/2000/svg">
<path d="M32.2101 18.1782V10.5142H30.6397L27.6866 13.7954L27.5226 8.95166H32.171L32.2101 8.98291V8.95166H41.0382L40.8741 13.7954L37.8429 10.5142H36.3272V18.1782L39.0929 20.1548H29.5382L32.2101 18.1782ZM45.5382 10.5063C45.2569 10.5063 44.9913 10.4543 44.7413 10.3501C44.4965 10.2407 44.283 10.0949 44.1007 9.9126C43.9184 9.73031 43.7726 9.51676 43.6632 9.27197C43.559 9.02197 43.5069 8.75635 43.5069 8.4751C43.5069 8.19385 43.559 7.93083 43.6632 7.68604C43.7726 7.43604 43.9184 7.21989 44.1007 7.0376C44.283 6.8501 44.4965 6.70426 44.7413 6.6001C44.9913 6.49072 45.2569 6.43604 45.5382 6.43604C45.8194 6.43604 46.0824 6.49072 46.3272 6.6001C46.5772 6.70426 46.7934 6.8501 46.9757 7.0376C47.1632 7.21989 47.309 7.43604 47.4132 7.68604C47.5226 7.93083 47.5772 8.19385 47.5772 8.4751C47.5772 8.75635 47.5226 9.02197 47.4132 9.27197C47.309 9.51676 47.1632 9.73031 46.9757 9.9126C46.7934 10.0949 46.5772 10.2407 46.3272 10.3501C46.0824 10.4543 45.8194 10.5063 45.5382 10.5063ZM43.8897 18.2485V13.4907L41.8429 11.7407L47.5382 11.5063V18.2485L49.6554 20.1548H41.7726L43.8897 18.2485ZM50.4913 15.7642C50.4913 15.0246 50.6502 14.3709 50.9679 13.8032C51.2908 13.2355 51.7335 12.759 52.296 12.3735C52.8585 11.9881 53.5226 11.6965 54.2882 11.4985C55.0538 11.3006 55.8819 11.2017 56.7726 11.2017C57.6267 11.2017 58.3663 11.2876 58.9913 11.4595C59.6215 11.6261 60.1423 11.8345 60.5538 12.0845L62.1866 11.1392V14.9204L60.2335 15.1548C60.1345 14.8215 59.9991 14.5116 59.8272 14.2251C59.6554 13.9386 59.447 13.6912 59.2022 13.4829C58.9627 13.2746 58.6892 13.1131 58.3819 12.9985C58.0746 12.8787 57.7387 12.8188 57.3741 12.8188C57.0408 12.8188 56.7074 12.8657 56.3741 12.9595C56.046 13.0532 55.7491 13.2147 55.4835 13.4438C55.2231 13.6678 55.0095 13.9699 54.8429 14.3501C54.6814 14.7251 54.6007 15.1965 54.6007 15.7642C54.6007 16.2433 54.684 16.6626 54.8507 17.022C55.0226 17.3813 55.2465 17.6834 55.5226 17.9282C55.8038 18.1678 56.1241 18.3475 56.4835 18.4673C56.8429 18.5871 57.2153 18.647 57.6007 18.647C57.9288 18.647 58.2752 18.6287 58.6397 18.5923C59.0095 18.5506 59.3715 18.4751 59.7257 18.3657C60.0851 18.2563 60.4262 18.1053 60.7491 17.9126C61.072 17.7199 61.3533 17.4699 61.5929 17.1626L62.3897 17.7876C62.2335 18.1834 61.9913 18.5454 61.6632 18.8735C61.3403 19.2017 60.947 19.4829 60.4835 19.7173C60.0252 19.9517 59.5043 20.134 58.921 20.2642C58.3429 20.3944 57.7231 20.4595 57.0616 20.4595C56.0199 20.4595 55.0929 20.3579 54.2804 20.1548C53.4679 19.9517 52.7804 19.6522 52.2179 19.2563C51.6554 18.8605 51.2257 18.3709 50.9288 17.7876C50.6371 17.1991 50.4913 16.5246 50.4913 15.7642Z" fill="#175B4F"/>
<path d="M69.2101 18.1782V10.5142H67.6397L64.6866 13.7954L64.5226 8.95166H69.171L69.2101 8.98291V8.95166H78.0382L77.8741 13.7954L74.8429 10.5142H73.3272V18.1782L76.0929 20.1548H66.5382L69.2101 18.1782ZM79.1944 18.1392C79.1944 17.7225 79.2804 17.3631 79.4522 17.061C79.6241 16.7537 79.8559 16.4933 80.1476 16.2798C80.4392 16.061 80.7804 15.884 81.171 15.7485C81.5616 15.6131 81.9757 15.509 82.4132 15.436C82.8507 15.3579 83.2986 15.3058 83.7569 15.2798C84.2205 15.2485 84.671 15.2329 85.1085 15.2329C85.3533 15.2329 85.6111 15.2381 85.8819 15.2485C86.158 15.2537 86.434 15.2616 86.7101 15.272C86.6996 14.897 86.6658 14.5636 86.6085 14.272C86.5564 13.9751 86.4653 13.7277 86.3351 13.5298C86.2101 13.3267 86.033 13.173 85.8038 13.0688C85.5798 12.9595 85.2908 12.9048 84.9366 12.9048C84.7074 12.9048 84.4809 12.9334 84.2569 12.9907C84.033 13.048 83.8298 13.1392 83.6476 13.2642C83.4653 13.3892 83.309 13.5506 83.1788 13.7485C83.0538 13.9412 82.9731 14.1782 82.9366 14.4595L79.8038 14.0298C79.8038 13.6756 79.8741 13.3605 80.0147 13.0845C80.1606 12.8032 80.3585 12.5584 80.6085 12.3501C80.8585 12.1366 81.1528 11.9569 81.4913 11.811C81.8351 11.6652 82.2022 11.548 82.5929 11.4595C82.9887 11.3709 83.4002 11.3058 83.8272 11.2642C84.2595 11.2225 84.6892 11.2017 85.1163 11.2017C85.6319 11.2017 86.1241 11.2251 86.5929 11.272C87.0668 11.3136 87.5069 11.3918 87.9132 11.5063C88.3194 11.6209 88.6866 11.7746 89.0147 11.9673C89.3481 12.16 89.6319 12.4048 89.8663 12.7017C90.1007 12.9985 90.2804 13.3527 90.4054 13.7642C90.5356 14.1756 90.6007 14.6548 90.6007 15.2017V17.9517C90.6007 18.3683 90.7022 18.66 90.9054 18.8267C91.1137 18.9933 91.3949 19.0767 91.7491 19.0767V19.9751C91.7022 20.022 91.6215 20.0741 91.5069 20.1313C91.3976 20.1834 91.2517 20.2329 91.0694 20.2798C90.8923 20.3319 90.6814 20.3735 90.4366 20.4048C90.1918 20.4412 89.9106 20.4595 89.5929 20.4595C89.2074 20.4595 88.8611 20.4386 88.5538 20.397C88.2465 20.3605 87.9783 20.2928 87.7491 20.1938C87.5252 20.1001 87.3377 19.9699 87.1866 19.8032C87.0356 19.6366 86.921 19.4256 86.8429 19.1704C86.5824 19.3996 86.2882 19.5949 85.9601 19.7563C85.6319 19.9178 85.283 20.0506 84.9132 20.1548C84.5486 20.259 84.171 20.3345 83.7804 20.3813C83.3949 20.4334 83.0147 20.4595 82.6397 20.4595C82.3897 20.4595 82.1319 20.4465 81.8663 20.4204C81.6007 20.3944 81.3403 20.3475 81.0851 20.2798C80.8298 20.2173 80.5877 20.1313 80.3585 20.022C80.1293 19.9074 79.9288 19.7642 79.7569 19.5923C79.5851 19.4204 79.447 19.2147 79.3429 18.9751C79.2439 18.7355 79.1944 18.4569 79.1944 18.1392ZM83.2335 17.7954C83.2335 17.936 83.2699 18.0636 83.3429 18.1782C83.4158 18.2928 83.5147 18.3892 83.6397 18.4673C83.7647 18.5454 83.9106 18.6053 84.0772 18.647C84.2439 18.6886 84.421 18.7095 84.6085 18.7095C84.8012 18.7095 85.0147 18.6886 85.2491 18.647C85.4835 18.6001 85.7048 18.5246 85.9132 18.4204C86.1267 18.3162 86.309 18.1808 86.4601 18.0142C86.6111 17.8423 86.697 17.634 86.7179 17.3892V16.5923C86.6449 16.5871 86.5746 16.5845 86.5069 16.5845C86.4444 16.5845 86.3845 16.5845 86.3272 16.5845C85.7699 16.5845 85.296 16.6131 84.9054 16.6704C84.5147 16.7225 84.1944 16.8006 83.9444 16.9048C83.6996 17.009 83.5199 17.1366 83.4054 17.2876C83.2908 17.4386 83.2335 17.6079 83.2335 17.7954ZM93.0226 15.7642C93.0226 15.0246 93.1814 14.3709 93.4991 13.8032C93.822 13.2355 94.2647 12.759 94.8272 12.3735C95.3897 11.9881 96.0538 11.6965 96.8194 11.4985C97.5851 11.3006 98.4132 11.2017 99.3038 11.2017C100.158 11.2017 100.898 11.2876 101.523 11.4595C102.153 11.6261 102.674 11.8345 103.085 12.0845L104.718 11.1392V14.9204L102.765 15.1548C102.666 14.8215 102.53 14.5116 102.358 14.2251C102.187 13.9386 101.978 13.6912 101.733 13.4829C101.494 13.2746 101.22 13.1131 100.913 12.9985C100.606 12.8787 100.27 12.8188 99.9054 12.8188C99.572 12.8188 99.2387 12.8657 98.9054 12.9595C98.5772 13.0532 98.2804 13.2147 98.0147 13.4438C97.7543 13.6678 97.5408 13.9699 97.3741 14.3501C97.2127 14.7251 97.1319 15.1965 97.1319 15.7642C97.1319 16.2433 97.2153 16.6626 97.3819 17.022C97.5538 17.3813 97.7778 17.6834 98.0538 17.9282C98.3351 18.1678 98.6554 18.3475 99.0147 18.4673C99.3741 18.5871 99.7465 18.647 100.132 18.647C100.46 18.647 100.806 18.6287 101.171 18.5923C101.541 18.5506 101.903 18.4751 102.257 18.3657C102.616 18.2563 102.957 18.1053 103.28 17.9126C103.603 17.7199 103.885 17.4699 104.124 17.1626L104.921 17.7876C104.765 18.1834 104.523 18.5454 104.194 18.8735C103.872 19.2017 103.478 19.4829 103.015 19.7173C102.556 19.9517 102.036 20.134 101.452 20.2642C100.874 20.3944 100.254 20.4595 99.5929 20.4595C98.5512 20.4595 97.6241 20.3579 96.8116 20.1548C95.9991 19.9517 95.3116 19.6522 94.7491 19.2563C94.1866 18.8605 93.7569 18.3709 93.4601 17.7876C93.1684 17.1991 93.0226 16.5246 93.0226 15.7642Z" fill="#175B4F"/>
<path d="M111.21 18.1782V10.5142H109.64L106.687 13.7954L106.523 8.95166H111.171L111.21 8.98291V8.95166H120.038L119.874 13.7954L116.843 10.5142H115.327V18.1782L118.093 20.1548H108.538L111.21 18.1782ZM121.241 15.8345C121.241 15.048 121.4 14.3657 121.718 13.7876C122.041 13.2043 122.489 12.7225 123.062 12.3423C123.635 11.9569 124.314 11.6704 125.101 11.4829C125.887 11.2954 126.747 11.2017 127.679 11.2017C128.611 11.2017 129.47 11.2954 130.257 11.4829C131.043 11.6704 131.723 11.9569 132.296 12.3423C132.869 12.7225 133.314 13.2043 133.632 13.7876C133.955 14.3657 134.116 15.048 134.116 15.8345C134.116 16.6522 133.955 17.3527 133.632 17.936C133.314 18.5194 132.869 18.9985 132.296 19.3735C131.723 19.7485 131.043 20.022 130.257 20.1938C129.47 20.3709 128.611 20.4595 127.679 20.4595C126.747 20.4595 125.887 20.3709 125.101 20.1938C124.314 20.022 123.635 19.7485 123.062 19.3735C122.489 18.9985 122.041 18.5194 121.718 17.936C121.4 17.3527 121.241 16.6522 121.241 15.8345ZM125.351 15.8345C125.351 16.3136 125.411 16.7485 125.53 17.1392C125.655 17.5298 125.822 17.8631 126.03 18.1392C126.244 18.41 126.491 18.6209 126.773 18.772C127.059 18.9178 127.361 18.9907 127.679 18.9907C127.997 18.9907 128.296 18.9178 128.577 18.772C128.864 18.6209 129.111 18.41 129.319 18.1392C129.533 17.8631 129.7 17.5298 129.819 17.1392C129.944 16.7485 130.007 16.3136 130.007 15.8345C130.007 15.3501 129.944 14.91 129.819 14.5142C129.7 14.1183 129.533 13.7798 129.319 13.4985C129.111 13.2173 128.864 12.9985 128.577 12.8423C128.296 12.686 127.997 12.6079 127.679 12.6079C127.361 12.6079 127.059 12.686 126.773 12.8423C126.491 12.9985 126.244 13.2173 126.03 13.4985C125.822 13.7798 125.655 14.1183 125.53 14.5142C125.411 14.91 125.351 15.3501 125.351 15.8345ZM135.679 15.9595C135.679 15.3241 135.77 14.7642 135.952 14.2798C136.14 13.7954 136.39 13.3787 136.702 13.0298C137.02 12.6756 137.387 12.3813 137.804 12.147C138.226 11.9126 138.674 11.7251 139.148 11.5845C139.622 11.4438 140.108 11.3449 140.608 11.2876C141.114 11.2303 141.603 11.2017 142.077 11.2017C142.832 11.2017 143.536 11.285 144.187 11.4517C144.843 11.6183 145.411 11.8866 145.89 12.2563C146.369 12.6261 146.744 13.1131 147.015 13.7173C147.291 14.3162 147.429 15.048 147.429 15.9126H139.796C139.817 16.4543 139.908 16.9022 140.069 17.2563C140.236 17.6053 140.45 17.884 140.71 18.0923C140.97 18.2954 141.267 18.4386 141.601 18.522C141.934 18.6053 142.278 18.647 142.632 18.647C142.95 18.647 143.293 18.6287 143.663 18.5923C144.033 18.5558 144.403 18.4881 144.773 18.3892C145.142 18.285 145.497 18.1444 145.835 17.9673C146.174 17.7902 146.468 17.5584 146.718 17.272L147.515 17.897C147.385 18.2147 147.202 18.4985 146.968 18.7485C146.733 18.9985 146.465 19.2199 146.163 19.4126C145.861 19.6001 145.533 19.7616 145.179 19.897C144.83 20.0272 144.47 20.134 144.101 20.2173C143.731 20.3006 143.361 20.3605 142.991 20.397C142.622 20.4386 142.267 20.4595 141.929 20.4595C140.976 20.4595 140.114 20.3605 139.343 20.1626C138.577 19.9647 137.921 19.6756 137.374 19.2954C136.832 18.91 136.413 18.4386 136.116 17.8813C135.825 17.3188 135.679 16.6782 135.679 15.9595ZM143.648 14.6938C143.648 14.3084 143.611 13.9855 143.538 13.7251C143.47 13.4595 143.366 13.2459 143.226 13.0845C143.085 12.923 142.908 12.8084 142.694 12.7407C142.486 12.6678 142.241 12.6313 141.96 12.6313C141.366 12.6313 140.895 12.811 140.546 13.1704C140.197 13.5298 139.968 14.0376 139.858 14.6938H143.648Z" fill="#D77335"/>
<rect x="9.49094" y="7.2417" width="15.1475" height="15.1475" fill="#175B4F"/>
<path d="M11.4383 12.5402H22.6911M11.4383 17.3074H22.6911M19.4483 9.29736L19.4483 20.5502M14.6811 9.29736L14.6811 20.5502" stroke="white" stroke-linecap="round"/>
</svg>
