<svg width="159" height="31" viewBox="0 0 159 31" fill="none" xmlns="http://www.w3.org/2000/svg">
<path d="M30.3254 18.7217V11.0576H28.7551L25.802 14.3389L25.6379 9.49512H30.2863L30.3254 9.52637V9.49512H39.1535L38.9895 14.3389L35.9582 11.0576H34.4426V18.7217L37.2082 20.6982H27.6535L30.3254 18.7217ZM43.6535 11.0498C43.3723 11.0498 43.1067 10.9977 42.8567 10.8936C42.6119 10.7842 42.3983 10.6383 42.216 10.4561C42.0337 10.2738 41.8879 10.0602 41.7785 9.81543C41.6744 9.56543 41.6223 9.2998 41.6223 9.01855C41.6223 8.7373 41.6744 8.47428 41.7785 8.22949C41.8879 7.97949 42.0337 7.76335 42.216 7.58105C42.3983 7.39355 42.6119 7.24772 42.8567 7.14355C43.1067 7.03418 43.3723 6.97949 43.6535 6.97949C43.9348 6.97949 44.1978 7.03418 44.4426 7.14355C44.6926 7.24772 44.9087 7.39355 45.091 7.58105C45.2785 7.76335 45.4244 7.97949 45.5285 8.22949C45.6379 8.47428 45.6926 8.7373 45.6926 9.01855C45.6926 9.2998 45.6379 9.56543 45.5285 9.81543C45.4244 10.0602 45.2785 10.2738 45.091 10.4561C44.9087 10.6383 44.6926 10.7842 44.4426 10.8936C44.1978 10.9977 43.9348 11.0498 43.6535 11.0498ZM42.0051 18.792V14.0342L39.9582 12.2842L45.6535 12.0498V18.792L47.7707 20.6982H39.8879L42.0051 18.792ZM48.6067 16.3076C48.6067 15.568 48.7655 14.9144 49.0832 14.3467C49.4061 13.779 49.8488 13.3024 50.4113 12.917C50.9738 12.5316 51.6379 12.2399 52.4035 12.042C53.1692 11.8441 53.9973 11.7451 54.8879 11.7451C55.7421 11.7451 56.4817 11.8311 57.1067 12.0029C57.7369 12.1696 58.2577 12.3779 58.6692 12.6279L60.302 11.6826V15.4639L58.3488 15.6982C58.2499 15.3649 58.1145 15.055 57.9426 14.7686C57.7707 14.4821 57.5624 14.2347 57.3176 14.0264C57.078 13.818 56.8046 13.6566 56.4973 13.542C56.19 13.4222 55.8541 13.3623 55.4895 13.3623C55.1561 13.3623 54.8228 13.4092 54.4895 13.5029C54.1613 13.5967 53.8645 13.7581 53.5988 13.9873C53.3384 14.2113 53.1249 14.5133 52.9582 14.8936C52.7968 15.2686 52.716 15.7399 52.716 16.3076C52.716 16.7868 52.7994 17.2061 52.966 17.5654C53.1379 17.9248 53.3619 18.2269 53.6379 18.4717C53.9192 18.7113 54.2395 18.891 54.5988 19.0107C54.9582 19.1305 55.3306 19.1904 55.716 19.1904C56.0442 19.1904 56.3905 19.1722 56.7551 19.1357C57.1249 19.0941 57.4869 19.0186 57.841 18.9092C58.2004 18.7998 58.5416 18.6488 58.8645 18.4561C59.1874 18.2633 59.4686 18.0133 59.7082 17.7061L60.5051 18.3311C60.3488 18.7269 60.1067 19.0889 59.7785 19.417C59.4556 19.7451 59.0624 20.0264 58.5988 20.2607C58.1405 20.4951 57.6197 20.6774 57.0363 20.8076C56.4582 20.9378 55.8384 21.0029 55.177 21.0029C54.1353 21.0029 53.2082 20.9014 52.3957 20.6982C51.5832 20.4951 50.8957 20.1956 50.3332 19.7998C49.7707 19.404 49.341 18.9144 49.0442 18.3311C48.7525 17.7425 48.6067 17.068 48.6067 16.3076Z" fill="#175B4F"/>
<path d="M67.3254 18.7217V11.0576H65.7551L62.802 14.3389L62.6379 9.49512H67.2863L67.3254 9.52637V9.49512H76.1535L75.9895 14.3389L72.9582 11.0576H71.4426V18.7217L74.2082 20.6982H64.6535L67.3254 18.7217ZM77.3098 18.6826C77.3098 18.266 77.3957 17.9066 77.5676 17.6045C77.7395 17.2972 77.9712 17.0368 78.2629 16.8232C78.5546 16.6045 78.8957 16.4274 79.2863 16.292C79.677 16.1566 80.091 16.0524 80.5285 15.9795C80.966 15.9014 81.414 15.8493 81.8723 15.8232C82.3358 15.792 82.7863 15.7764 83.2238 15.7764C83.4686 15.7764 83.7265 15.7816 83.9973 15.792C84.2733 15.7972 84.5494 15.805 84.8254 15.8154C84.815 15.4404 84.7811 15.1071 84.7238 14.8154C84.6718 14.5186 84.5806 14.2712 84.4504 14.0732C84.3254 13.8701 84.1483 13.7165 83.9192 13.6123C83.6952 13.5029 83.4061 13.4482 83.052 13.4482C82.8228 13.4482 82.5962 13.4769 82.3723 13.5342C82.1483 13.5915 81.9452 13.6826 81.7629 13.8076C81.5806 13.9326 81.4244 14.0941 81.2942 14.292C81.1692 14.4847 81.0884 14.7217 81.052 15.0029L77.9192 14.5732C77.9192 14.2191 77.9895 13.904 78.1301 13.6279C78.2759 13.3467 78.4738 13.1019 78.7238 12.8936C78.9738 12.68 79.2681 12.5003 79.6067 12.3545C79.9504 12.2087 80.3176 12.0915 80.7082 12.0029C81.1041 11.9144 81.5155 11.8493 81.9426 11.8076C82.3749 11.766 82.8046 11.7451 83.2317 11.7451C83.7473 11.7451 84.2395 11.7686 84.7082 11.8154C85.1822 11.8571 85.6223 11.9352 86.0285 12.0498C86.4348 12.1644 86.802 12.318 87.1301 12.5107C87.4634 12.7035 87.7473 12.9482 87.9817 13.2451C88.216 13.542 88.3957 13.8962 88.5207 14.3076C88.6509 14.7191 88.716 15.1982 88.716 15.7451V18.4951C88.716 18.9118 88.8176 19.2035 89.0207 19.3701C89.2291 19.5368 89.5103 19.6201 89.8645 19.6201V20.5186C89.8176 20.5654 89.7369 20.6175 89.6223 20.6748C89.5129 20.7269 89.3671 20.7764 89.1848 20.8232C89.0077 20.8753 88.7968 20.917 88.552 20.9482C88.3072 20.9847 88.0259 21.0029 87.7082 21.0029C87.3228 21.0029 86.9765 20.9821 86.6692 20.9404C86.3619 20.904 86.0936 20.8363 85.8645 20.7373C85.6405 20.6436 85.453 20.5133 85.302 20.3467C85.1509 20.18 85.0363 19.9691 84.9582 19.7139C84.6978 19.943 84.4035 20.1383 84.0754 20.2998C83.7473 20.4613 83.3983 20.5941 83.0285 20.6982C82.664 20.8024 82.2863 20.8779 81.8957 20.9248C81.5103 20.9769 81.1301 21.0029 80.7551 21.0029C80.5051 21.0029 80.2473 20.9899 79.9817 20.9639C79.716 20.9378 79.4556 20.891 79.2004 20.8232C78.9452 20.7607 78.703 20.6748 78.4738 20.5654C78.2447 20.4508 78.0442 20.3076 77.8723 20.1357C77.7004 19.9639 77.5624 19.7581 77.4582 19.5186C77.3593 19.279 77.3098 19.0003 77.3098 18.6826ZM81.3488 18.3389C81.3488 18.4795 81.3853 18.6071 81.4582 18.7217C81.5311 18.8363 81.6301 18.9326 81.7551 19.0107C81.8801 19.0889 82.0259 19.1488 82.1926 19.1904C82.3593 19.2321 82.5363 19.2529 82.7238 19.2529C82.9166 19.2529 83.1301 19.2321 83.3645 19.1904C83.5988 19.1436 83.8202 19.068 84.0285 18.9639C84.2421 18.8597 84.4244 18.7243 84.5754 18.5576C84.7265 18.3857 84.8124 18.1774 84.8332 17.9326V17.1357C84.7603 17.1305 84.69 17.1279 84.6223 17.1279C84.5598 17.1279 84.4999 17.1279 84.4426 17.1279C83.8853 17.1279 83.4113 17.1566 83.0207 17.2139C82.6301 17.266 82.3098 17.3441 82.0598 17.4482C81.815 17.5524 81.6353 17.68 81.5207 17.8311C81.4061 17.9821 81.3488 18.1514 81.3488 18.3389ZM91.1379 16.3076C91.1379 15.568 91.2968 14.9144 91.6145 14.3467C91.9374 13.779 92.3801 13.3024 92.9426 12.917C93.5051 12.5316 94.1692 12.2399 94.9348 12.042C95.7004 11.8441 96.5285 11.7451 97.4192 11.7451C98.2733 11.7451 99.0129 11.8311 99.6379 12.0029C100.268 12.1696 100.789 12.3779 101.2 12.6279L102.833 11.6826V15.4639L100.88 15.6982C100.781 15.3649 100.646 15.055 100.474 14.7686C100.302 14.4821 100.094 14.2347 99.8488 14.0264C99.6093 13.818 99.3358 13.6566 99.0285 13.542C98.7212 13.4222 98.3853 13.3623 98.0207 13.3623C97.6874 13.3623 97.3541 13.4092 97.0207 13.5029C96.6926 13.5967 96.3957 13.7581 96.1301 13.9873C95.8697 14.2113 95.6561 14.5133 95.4895 14.8936C95.328 15.2686 95.2473 15.7399 95.2473 16.3076C95.2473 16.7868 95.3306 17.2061 95.4973 17.5654C95.6692 17.9248 95.8931 18.2269 96.1692 18.4717C96.4504 18.7113 96.7707 18.891 97.1301 19.0107C97.4895 19.1305 97.8619 19.1904 98.2473 19.1904C98.5754 19.1904 98.9218 19.1722 99.2863 19.1357C99.6561 19.0941 100.018 19.0186 100.372 18.9092C100.732 18.7998 101.073 18.6488 101.396 18.4561C101.719 18.2633 102 18.0133 102.239 17.7061L103.036 18.3311C102.88 18.7269 102.638 19.0889 102.31 19.417C101.987 19.7451 101.594 20.0264 101.13 20.2607C100.672 20.4951 100.151 20.6774 99.5676 20.8076C98.9895 20.9378 98.3697 21.0029 97.7082 21.0029C96.6666 21.0029 95.7395 20.9014 94.927 20.6982C94.1145 20.4951 93.427 20.1956 92.8645 19.7998C92.302 19.404 91.8723 18.9144 91.5754 18.3311C91.2837 17.7425 91.1379 17.068 91.1379 16.3076Z" fill="#209C49"/>
<path d="M109.325 18.7217V11.0576H107.755L104.802 14.3389L104.638 9.49512H109.286L109.325 9.52637V9.49512H118.154L117.989 14.3389L114.958 11.0576H113.443V18.7217L116.208 20.6982H106.654L109.325 18.7217ZM119.357 16.3779C119.357 15.5915 119.516 14.9092 119.833 14.3311C120.156 13.7477 120.604 13.266 121.177 12.8857C121.75 12.5003 122.43 12.2139 123.216 12.0264C124.002 11.8389 124.862 11.7451 125.794 11.7451C126.726 11.7451 127.586 11.8389 128.372 12.0264C129.159 12.2139 129.838 12.5003 130.411 12.8857C130.984 13.266 131.43 13.7477 131.747 14.3311C132.07 14.9092 132.232 15.5915 132.232 16.3779C132.232 17.1956 132.07 17.8962 131.747 18.4795C131.43 19.0628 130.984 19.542 130.411 19.917C129.838 20.292 129.159 20.5654 128.372 20.7373C127.586 20.9144 126.726 21.0029 125.794 21.0029C124.862 21.0029 124.002 20.9144 123.216 20.7373C122.43 20.5654 121.75 20.292 121.177 19.917C120.604 19.542 120.156 19.0628 119.833 18.4795C119.516 17.8962 119.357 17.1956 119.357 16.3779ZM123.466 16.3779C123.466 16.8571 123.526 17.292 123.646 17.6826C123.771 18.0732 123.937 18.4066 124.146 18.6826C124.359 18.9535 124.607 19.1644 124.888 19.3154C125.174 19.4613 125.476 19.5342 125.794 19.5342C126.112 19.5342 126.411 19.4613 126.693 19.3154C126.979 19.1644 127.226 18.9535 127.435 18.6826C127.648 18.4066 127.815 18.0732 127.935 17.6826C128.06 17.292 128.122 16.8571 128.122 16.3779C128.122 15.8936 128.06 15.4535 127.935 15.0576C127.815 14.6618 127.648 14.3232 127.435 14.042C127.226 13.7607 126.979 13.542 126.693 13.3857C126.411 13.2295 126.112 13.1514 125.794 13.1514C125.476 13.1514 125.174 13.2295 124.888 13.3857C124.607 13.542 124.359 13.7607 124.146 14.042C123.937 14.3232 123.771 14.6618 123.646 15.0576C123.526 15.4535 123.466 15.8936 123.466 16.3779ZM133.794 16.5029C133.794 15.8675 133.885 15.3076 134.068 14.8232C134.255 14.3389 134.505 13.9222 134.818 13.5732C135.135 13.2191 135.502 12.9248 135.919 12.6904C136.341 12.4561 136.789 12.2686 137.263 12.1279C137.737 11.9873 138.224 11.8883 138.724 11.8311C139.229 11.7738 139.719 11.7451 140.193 11.7451C140.948 11.7451 141.651 11.8285 142.302 11.9951C142.958 12.1618 143.526 12.43 144.005 12.7998C144.484 13.1696 144.859 13.6566 145.13 14.2607C145.406 14.8597 145.544 15.5915 145.544 16.4561H137.911C137.932 16.9977 138.023 17.4456 138.185 17.7998C138.351 18.1488 138.565 18.4274 138.825 18.6357C139.086 18.8389 139.383 18.9821 139.716 19.0654C140.049 19.1488 140.393 19.1904 140.747 19.1904C141.065 19.1904 141.409 19.1722 141.779 19.1357C142.148 19.0993 142.518 19.0316 142.888 18.9326C143.258 18.8285 143.612 18.6878 143.95 18.5107C144.289 18.3337 144.583 18.1019 144.833 17.8154L145.63 18.4404C145.5 18.7581 145.318 19.042 145.083 19.292C144.849 19.542 144.581 19.7633 144.279 19.9561C143.976 20.1436 143.648 20.305 143.294 20.4404C142.945 20.5706 142.586 20.6774 142.216 20.7607C141.846 20.8441 141.476 20.904 141.107 20.9404C140.737 20.9821 140.383 21.0029 140.044 21.0029C139.091 21.0029 138.229 20.904 137.458 20.7061C136.693 20.5081 136.036 20.2191 135.489 19.8389C134.948 19.4535 134.529 18.9821 134.232 18.4248C133.94 17.8623 133.794 17.2217 133.794 16.5029ZM141.763 15.2373C141.763 14.8519 141.726 14.529 141.654 14.2686C141.586 14.0029 141.482 13.7894 141.341 13.6279C141.2 13.4665 141.023 13.3519 140.81 13.2842C140.601 13.2113 140.357 13.1748 140.075 13.1748C139.482 13.1748 139.01 13.3545 138.661 13.7139C138.312 14.0732 138.083 14.5811 137.974 15.2373H141.763Z" fill="#D77335"/>
<rect x="7.60629" y="7.78516" width="15.1475" height="15.1475" fill="#175B4F"/>
<path d="M9.55362 13.0836H20.8065M9.55362 17.8509H20.8065M17.5637 9.84082L17.5637 21.0937M12.7964 9.84082L12.7964 21.0937" stroke="white" stroke-linecap="round"/>
</svg>
